<svg width="15" height="15" viewBox="0 0 15 15" fill="none" xmlns="http://www.w3.org/2000/svg">
<path d="M14.955 4.408C14.9185 3.6095 14.792 3.0645 14.6065 2.5875C14.415 2.0945 14.1585 1.676 13.7415 1.259C13.3245 0.842 12.9065 0.5855 12.413 0.394C11.936 0.2085 11.3905 0.082 10.5925 0.0454998C9.7925 0.0084998 9.537 0 7.5 0C5.463 0 5.2075 0.0085001 4.408 0.0450001C3.6095 0.0815 3.0645 0.208001 2.5875 0.393501C2.0945 0.585 1.676 0.8415 1.259 1.2585C0.842 1.6755 0.5855 2.0935 0.394 2.587C0.2085 3.064 0.082 3.6095 0.0454998 4.4075C0.0084998 5.2075 0 5.463 0 7.5C0 9.537 0.0085001 9.7925 0.0450001 10.592C0.0815 11.3905 0.208001 11.9355 0.393501 12.4125C0.585 12.9055 0.8415 13.324 1.2585 13.741C1.6755 14.158 2.0935 14.4145 2.587 14.606C3.064 14.7915 3.6095 14.918 4.4075 14.9545C5.2075 14.9915 5.463 15 7.5 15C9.537 15 9.7925 14.9915 10.592 14.955C11.3905 14.9185 11.9355 14.792 12.4125 14.6065C12.9055 14.415 13.324 14.1585 13.741 13.7415C14.158 13.3245 14.4145 12.9065 14.606 12.413C14.7915 11.936 14.918 11.3905 14.9545 10.5925C14.9915 9.7925 15 9.537 15 7.5C15 5.463 14.9915 5.2075 14.955 4.408ZM13.605 10.5305C13.5715 11.2615 13.4495 11.659 13.347 11.923C13.211 12.273 13.0485 12.523 12.786 12.7855C12.5235 13.048 12.2735 13.2105 11.9235 13.3465C11.659 13.449 11.262 13.5715 10.531 13.6045C9.7405 13.6405 9.503 13.648 7.5005 13.648C5.498 13.648 5.2605 13.6405 4.47 13.6045C3.739 13.571 3.3415 13.449 3.0775 13.3465C2.7275 13.2105 2.4775 13.048 2.215 12.7855C1.9525 12.523 1.79 12.273 1.654 11.923C1.5515 11.6585 1.429 11.2615 1.396 10.5305C1.36 9.7395 1.3525 9.5025 1.3525 7.5C1.3525 5.4975 1.36 5.26 1.396 4.4695C1.4295 3.7385 1.5515 3.341 1.654 3.077C1.79 2.727 1.9525 2.477 2.215 2.2145C2.4775 1.952 2.7275 1.7895 3.0775 1.6535C3.342 1.551 3.739 1.4285 4.47 1.3955C5.261 1.3595 5.498 1.352 7.5005 1.352C9.503 1.352 9.7405 1.3595 10.531 1.3955C11.262 1.429 11.6595 1.551 11.9235 1.6535C12.2735 1.7895 12.5235 1.952 12.786 2.2145C13.0485 2.477 13.211 2.727 13.347 3.077C13.4495 3.3415 13.572 3.7385 13.605 4.4695C13.641 5.2605 13.6485 5.4975 13.6485 7.5C13.6485 9.5025 13.641 9.74 13.605 10.5305ZM7.5 3.6485C5.373 3.6485 3.6485 5.373 3.6485 7.5C3.6485 9.627 5.373 11.3515 7.5 11.3515C9.627 11.3515 11.3515 9.627 11.3515 7.5C11.3515 5.373 9.627 3.6485 7.5 3.6485ZM7.5 10C6.1195 10 5 8.8805 5 7.5C5 6.1195 6.1195 5 7.5 5C8.8805 5 10 6.1195 10 7.5C10 8.8805 8.8805 10 7.5 10ZM11.5035 2.5965C11.0065 2.5965 10.6035 2.9995 10.6035 3.4965C10.6035 3.9935 11.0065 4.3965 11.5035 4.3965C12.0005 4.3965 12.4035 3.9935 12.4035 3.4965C12.4035 2.9995 12.0005 2.5965 11.5035 2.5965Z" fill="black"/>
</svg>
