<svg width="15" height="15" viewBox="0 0 15 15" fill="none" xmlns="http://www.w3.org/2000/svg">
<path d="M0.230769 15H3.34615V4.96154H0.230769V15ZM1.78846 0C0.807692 0 0 0.807692 0 1.78846C0 2.76923 0.807692 3.57692 1.78846 3.57692C2.76923 3.57692 3.57692 2.76923 3.57692 1.78846C3.57692 0.807692 2.76923 0 1.78846 0ZM11.25 4.73077C9.75 4.73077 8.71154 5.53846 8.30769 6.34615H8.25V4.96154H5.25V15H8.36538V10.0385C8.36538 8.71154 8.59615 7.44231 10.2115 7.44231C11.8269 7.44231 11.8269 8.94231 11.8269 10.0962V15H15V9.51923C15 6.80769 14.4231 4.73077 11.25 4.73077Z" fill="black"/>
</svg>
