<svg width="21" height="15" viewBox="0 0 21 15" fill="none" xmlns="http://www.w3.org/2000/svg">
<path d="M20.25 3.13636C20.25 3.13636 20.0455 1.70455 19.4318 1.09091C18.6818 0.272727 17.7955 0.272728 17.3864 0.204546C14.5227 7.7486e-07 10.2273 0 10.2273 0C10.2273 0 5.93182 7.7486e-07 3.06818 0.204546C2.65909 0.272728 1.77273 0.272727 1.02273 1.09091C0.409091 1.70455 0.204545 3.13636 0.204545 3.13636C0.204545 3.13636 0 4.77273 0 6.47727V8.04545C0 9.68182 0.204545 11.3864 0.204545 11.3864C0.204545 11.3864 0.409091 12.8182 1.02273 13.4318C1.77273 14.25 2.79545 14.25 3.27273 14.3182C4.90909 14.4545 10.2273 14.5227 10.2273 14.5227C10.2273 14.5227 14.5227 14.5227 17.3864 14.3182C17.7955 14.25 18.6818 14.25 19.4318 13.4318C20.0455 12.8182 20.25 11.3864 20.25 11.3864C20.25 11.3864 20.4545 9.75 20.4545 8.04545V6.47727C20.4545 4.77273 20.25 3.13636 20.25 3.13636ZM8.11364 9.88636V4.15909L13.6364 7.02273L8.11364 9.88636Z" fill="black"/>
</svg>
